<?xml version="1.0" encoding="UTF-8" standalone="no"?>
<svg
   xmlns:svg="http://www.w3.org/2000/svg"
   xmlns="http://www.w3.org/2000/svg"
   width="900.0"
   height="560.0"

>
    <g transform="scale(0.7332898140404324, -0.7332898140404324)   translate(-28.61499745035218,-306.2482282912092)" stroke-width="0.6"  fill="none">
       <!-- hidden lines -->
       <g  stroke="rgb(200,200,210)" fill="none" stroke-dasharray="0.6,0.6" >
			<path d="M199.73753269531773,-30.933252087922106 L115.23319193960637,-63.03379670746392 " />
			<path d="M42.25217037785567,33.85148341697136 L199.7375326952753,-30.933252087986844 " />
			<path d="M596.6518604872954,-248.04966296918676 L199.73753269531784,-30.933252087922142 " />
			<path d="M199.73753269531773,93.6752256624811 L247.75136267015375,67.41114370103779 " />
			<path d="M302.1670366416346,37.64518414473537 L369.38639860640495,0.8754693987147419 " />
			<path d="M455.8112925611097,-46.399878131883185 L535.1941581195053,-89.82316030813615 " />
			<path d="M199.73753269531773,93.6752256624811 L199.73753269531773,-30.9332520879221 " />
			<path d="M134.4387239295408,68.87025936556242 L199.73753269531773,93.6752256624811 " />
			<path d="M199.73753269531773,93.6752256624811 L164.74078551367043,98.18227182623906 " />
			<path d="M469.89534935372825,-176.04230492489637 L565.9230093034002,-228.57046884778296 " />
			<path d="M469.89534935372825,-176.04230492489637 L469.89534935372825,-140.43988271049545 " />
			<path d="M565.9230093034002,-192.96804663338207 L469.89534935372825,-140.43988271049548 " />
			<path d="M446.84871096580696,-149.1945766976432 L542.8763709154789,-201.7227406205298 " />
			<path d="M469.89534935372825,-140.43988271049545 L446.84871096580696,-149.1945766976432 " />
			<path d="M542.876370915479,-237.32516283493072 L446.848710965807,-184.79699891204413 " />
			<path d="M446.84871096580696,-149.1945766976432 L446.84871096580696,-184.79699891204413 " />
			<path d="M446.84871096580696,-184.79699891204413 L469.89534935372825,-176.04230492489637 " />
			<path d="M384.11063979868794,39.10429980926003 L299.6062990429766,7.003755189718213 " />
			<path d="M299.6062990429766,7.00375518971822 L258.55447441444926,61.501725259736325 " />
			<path d="M252.68992803897177,69.28714955541813 L226.6252774811628,103.88903531417814 " />
			<path d="M226.62527748122588,103.8890353141535 L384.1106397986455,39.1042998091953 " />
			<path d="M781.0249675906655,-178.01211107200461 L384.11063979868794,39.10429980926 " />
			<path d="M299.6062990429766,7.00375518971822 L596.6518604872954,-155.48336521174437 " />
			<path d="M299.6062990429766,7.00375518971822 L299.6062990429766,39.04593518267902 " />
			<path d="M299.6062990429766,53.286904068439355 L299.6062990429766,131.61223294012143 " />
			<path d="M299.6062990429766,131.61223294012143 L247.75136267015372,168.831201719655 " />
			<path d="M226.62527748122588,103.8890353141535 L226.62527748122588,129.70079141959414 " />
			<path d="M384.11063979868794,163.7127775596632 L553.7595057097751,70.91302129589688 " />
			<path d="M640.18439966448,23.637673765298928 L719.5672652228754,-19.78560841095404 " />
			<path d="M384.11063979868794,163.7127775596632 L384.11063979868794,39.10429980926001 " />
			<path d="M622.8994208735389,-45.23258560026347 L555.6800589087686,-8.462870854242851 " />
			<path d="M478.857930949031,33.559660284066396 L299.6062990429767,131.61223294012137 " />
			<path d="M299.6062990429766,131.61223294012143 L384.110639798688,163.71277755966324 " />
			<path d="M384.11063979868794,163.7127775596632 L247.75136267015372,181.2737684050427 " />
			<path d="M654.2684564570984,-106.00475302771422 L750.2961164067704,-158.53291695060082 " />
			<path d="M654.2684564570984,-106.00475302771422 L654.2684564570984,-70.40233081331331 " />
			<path d="M750.2961164067706,-122.93049473619993 L654.2684564570986,-70.40233081331334 " />
			<path d="M631.2218180691772,-79.15702480046107 L727.2494780188491,-131.68518872334766 " />
			<path d="M654.2684564570984,-70.40233081331331 L631.2218180691772,-79.15702480046107 " />
			<path d="M727.2494780188492,-167.2876109377486 L631.2218180691773,-114.75944701486202 " />
			<path d="M631.2218180691772,-79.15702480046107 L631.2218180691772,-114.75944701486199 " />
			<path d="M631.2218180691772,-114.75944701486198 L654.2684564570984,-106.0047530277142 " />
			<path d="M134.4387239295408,51.069048258361946 L403.31617178862234,153.2071447750859 " />
			<path d="M403.31617178862234,153.2071447750859 L432.1244697735239,137.44869559821993 " />
			<path d="M432.1244697735239,137.4486955982199 L263.1157882621012,73.24760635913628 " />
			<path d="M224.70472428223243,94.25887192829092 L432.1244697735239,173.05111781262082 " />
			<path d="M432.1244697735239,173.05111781262082 L403.31617178862234,188.8095669894868 " />
			<path d="M403.31617178862234,188.8095669894868 L195.89642629733083,110.01732110515688 " />
			<path d="M432.1244697735239,137.4486955982199 L432.1244697735239,173.05111781262082 " />
			<path d="M403.31617178862234,153.2071447750859 L403.31617178862234,188.80956698948683 " />
			<path d="M256.073759865792,-15.466626043961085 L524.9512077248735,86.67147047276286 " />
			<path d="M524.9512077248735,86.67147047276286 L553.7595057097751,70.91302129589688 " />
			<path d="M539.3553567173243,65.44133755392953 L384.75082419835246,6.711932056813268 " />
			<path d="M346.33976021848366,27.723197625967885 L533.2736049205117,98.73349329949977 " />
			<path d="M533.2736049205117,117.72145181384694 L524.9512077248735,122.27389268716377 " />
			<path d="M524.9512077248735,122.27389268716377 L317.5314622335821,43.48164680283389 " />
			<path d="M524.9512077248735,86.67147047276286 L524.9512077248735,122.27389268716377 " />
			<path d="M409.71801578526714,-99.51168832057964 L678.5954636443487,2.626408196144311 " />
			<path d="M678.5954636443487,2.626408196144311 L707.4037616292503,-13.13204098072167 " />
			<path d="M707.4037616292503,-13.13204098072167 L645.9460592614603,-36.477891613115716 " />
			<path d="M530.7128673218538,-80.25136154885456 L461.57295215809006,-106.51544351029786 " />
			<path d="M678.5954636443487,2.626408196144311 L678.5954636443487,38.22883041054522 " />
			<path d="M707.4037616292503,-13.13204098072167 L707.4037616292503,-6.011556537841487 " />
			<path d="M652.475940138038,-29.54709220662373 L677.8272423647514,-19.916928820761186 " />
			<path d="M652.4759401380379,-25.986849985183618 L652.4759401380379,-29.54709220662371 " />
			<path d="M677.8272423647514,-16.356686599321094 L652.475940138038,-25.98684998518364 " />
			<path d="M677.8272423647513,-19.916928820761164 L677.8272423647513,-16.356686599321073 " />
			<path d="M468.10283303466775,-99.58464410380587 L493.4541352613811,-89.95448071794333 " />
			<path d="M468.10283303466775,-96.02440188236575 L468.10283303466775,-99.58464410380584 " />
			<path d="M493.4541352613811,-86.39423849650323 L468.10283303466775,-96.02440188236578 " />
			<path d="M493.4541352613811,-89.9544807179433 L493.4541352613811,-86.3942384965032 " />
			<path d="M652.4759401380379,-29.54709220662373 L630.0694861497811,-17.290520624616857 " />
			<path d="M630.0694861497811,-17.290520624616846 L655.4207883764946,-7.660357238754301 " />
			<path d="M655.4207883764946,-7.660357238754301 L677.8272423647513,-19.916928820761175 " />
			<path d="M655.4207883764946,-7.660357238754301 L655.4207883764946,-4.100115017314209 " />
			<path d="M677.8272423647513,-16.356686599321094 L655.4207883764946,-4.10011501731422 " />
			<path d="M655.4207883764946,-4.100115017314209 L630.0694861497811,-13.730278403176754 " />
			<path d="M630.0694861497811,-13.730278403176754 L652.4759401380379,-25.98684998518363 " />
			<path d="M630.0694861497811,-13.730278403176754 L630.0694861497811,-17.290520624616846 " />
			<path d="M468.10283303466775,-99.58464410380587 L445.696379046411,-87.328072521799 " />
			<path d="M445.6963790464109,-87.32807252179899 L471.04768127312434,-77.69790913593644 " />
			<path d="M471.04768127312434,-77.69790913593644 L493.4541352613811,-89.95448071794331 " />
			<path d="M445.6963790464109,-83.7678303003589 L468.1028330346677,-96.02440188236577 " />
			<path d="M445.6963790464109,-83.7678303003589 L445.6963790464109,-87.32807252179899 " />
			<path d="M471.04768127312434,-77.69790913593644 L471.04768127312434,-74.13766691449635 " />
			<path d="M493.4541352613811,-86.39423849650323 L471.04768127312434,-74.13766691449636 " />
			<path d="M471.04768127312434,-74.13766691449635 L445.6963790464109,-83.7678303003589 " />
			<path d="M445.6963790464109,-87.32807252179899 L471.04768127312434,-77.69790913593644 " />
			<path d="M471.04768127312434,-77.69790913593644 L519.0615112479603,-103.96199109737974 " />
			<path d="M519.0615112479603,-103.96199109737975 L493.7102090212469,-113.5921544832423 " />
			<path d="M493.71020902124695,-113.5921544832423 L445.696379046411,-87.328072521799 " />
			<path d="M493.71020902124695,-113.5921544832423 L493.71020902124695,-110.0319122618022 " />
			<path d="M445.6963790464109,-83.7678303003589 L493.7102090212469,-110.03191226180219 " />
			<path d="M445.6963790464109,-83.7678303003589 L445.6963790464109,-87.32807252179899 " />
			<path d="M493.71020902124695,-110.0319122618022 L519.0615112479603,-100.40174887593966 " />
			<path d="M519.0615112479603,-100.40174887593966 L471.04768127312434,-74.13766691449636 " />
			<path d="M471.04768127312434,-74.13766691449635 L445.6963790464109,-83.7678303003589 " />
			<path d="M519.0615112479603,-103.96199109737975 L519.0615112479603,-100.40174887593966 " />
			<path d="M471.04768127312434,-77.69790913593644 L471.04768127312434,-74.13766691449635 " />
			<path d="M630.0694861497811,-17.290520624616846 L655.4207883764946,-7.660357238754301 " />
			<path d="M655.4207883764946,-7.660357238754301 L703.4346183513305,-33.9244392001976 " />
			<path d="M703.4346183513305,-33.92443920019761 L678.0833161246171,-43.554602586060156 " />
			<path d="M678.0833161246171,-43.554602586060156 L630.0694861497811,-17.290520624616857 " />
			<path d="M678.0833161246171,-43.554602586060156 L678.0833161246171,-39.994360364620064 " />
			<path d="M630.0694861497811,-13.730278403176754 L678.0833161246171,-39.99436036462005 " />
			<path d="M630.0694861497811,-13.730278403176754 L630.0694861497811,-17.290520624616846 " />
			<path d="M678.0833161246171,-39.994360364620064 L703.4346183513305,-30.36419697875752 " />
			<path d="M703.4346183513305,-30.36419697875752 L655.4207883764946,-4.10011501731422 " />
			<path d="M655.4207883764946,-4.100115017314209 L630.0694861497811,-13.730278403176754 " />
			<path d="M703.4346183513305,-33.92443920019761 L703.4346183513305,-30.36419697875752 " />
			<path d="M655.4207883764946,-7.660357238754301 L655.4207883764946,-4.100115017314209 " />
			<path d="M446.84871096580696,-184.79699891204413 L469.89534935372825,-176.04230492489637 " />
			<path d="M469.89534935372825,-176.04230492489637 L565.9230093034002,-228.57046884778296 " />
			<path d="M542.876370915479,-237.32516283493072 L446.848710965807,-184.79699891204413 " />
			<path d="M446.84871096580696,-149.1945766976432 L542.8763709154789,-201.7227406205298 " />
			<path d="M446.84871096580696,-149.1945766976432 L446.84871096580696,-184.79699891204413 " />
			<path d="M565.9230093034002,-192.96804663338207 L469.89534935372825,-140.43988271049548 " />
			<path d="M469.89534935372825,-140.43988271049545 L446.84871096580696,-149.1945766976432 " />
			<path d="M469.89534935372825,-176.04230492489637 L469.89534935372825,-140.43988271049545 " />
			<path d="M631.2218180691772,-114.75944701486198 L654.2684564570984,-106.0047530277142 " />
			<path d="M654.2684564570984,-106.00475302771422 L750.2961164067704,-158.53291695060082 " />
			<path d="M727.2494780188492,-167.2876109377486 L631.2218180691773,-114.75944701486202 " />
			<path d="M631.2218180691772,-79.15702480046107 L727.2494780188491,-131.68518872334766 " />
			<path d="M631.2218180691772,-79.15702480046107 L631.2218180691772,-114.75944701486199 " />
			<path d="M750.2961164067706,-122.93049473619993 L654.2684564570986,-70.40233081331334 " />
			<path d="M654.2684564570984,-70.40233081331331 L631.2218180691772,-79.15702480046107 " />
			<path d="M654.2684564570984,-106.00475302771422 L654.2684564570984,-70.40233081331331 " />
			<path d="M505.74567573493914,-276.6483299938694 L590.2500164906505,-244.54778537432762 " />
			<path d="M590.2500164906505,-244.54778537432762 L596.6518604872953,-248.04966296918673 " />
			<path d="M590.2500164906505,-244.54778537432762 L590.2500164906505,-119.93930762392442 " />
			<path d="M559.5211653067555,-225.06859125292385 L536.4745269188342,-233.82328524007164 " />
			<path d="M559.5211653067554,-189.46616903852293 L559.5211653067554,-225.06859125292385 " />
			<path d="M536.4745269188342,-198.22086302567072 L559.5211653067555,-189.46616903852293 " />
			<path d="M536.4745269188342,-233.82328524007158 L536.4745269188342,-198.22086302567067 " />
			<path d="M542.876370915479,-237.32516283493072 L536.4745269188343,-233.8232852400716 " />
			<path d="M559.5211653067554,-225.06859125292385 L565.9230093034002,-228.57046884778296 " />
			<path d="M536.4745269188342,-198.22086302567072 L542.8763709154789,-201.7227406205298 " />
			<path d="M565.9230093034002,-192.96804663338207 L559.5211653067555,-189.46616903852296 " />
			<path d="M690.1187828383094,-206.61077809668728 L774.6231235940207,-174.51023347714548 " />
			<path d="M774.6231235940206,-174.51023347714548 L781.0249675906654,-178.0121110720046 " />
			<path d="M774.6231235940206,-174.51023347714548 L774.6231235940206,-49.90175572674228 " />
			<path d="M743.8942724101257,-155.0310393557417 L720.8476340222044,-163.7857333428895 " />
			<path d="M743.8942724101257,-119.42861714134081 L743.8942724101257,-155.0310393557417 " />
			<path d="M720.8476340222044,-128.18331112848858 L743.8942724101257,-119.42861714134081 " />
			<path d="M720.8476340222044,-163.78573334288944 L720.8476340222044,-128.18331112848853 " />
			<path d="M727.2494780188492,-167.2876109377486 L720.8476340222045,-163.7857333428895 " />
			<path d="M743.8942724101256,-155.0310393557417 L750.2961164067704,-158.53291695060082 " />
			<path d="M720.8476340222044,-128.18331112848858 L727.2494780188491,-131.68518872334766 " />
			<path d="M750.2961164067706,-122.93049473619993 L743.8942724101258,-119.42861714134082 " />
			<path d="M195.89642629733086,110.0173211051569 L341.8584694208323,165.46371635709275 " />
			<path d="M341.8584694208323,165.46371635709275 L341.8584694208323,173.47426135533294 " />
			<path d="M247.75136267015372,137.72592757447958 L341.8584694208323,173.47426135533297 " />
			<path d="M341.8584694208323,165.46371635709275 L540.315633316821,56.90551091646044 " />
			<path d="M341.8584694208323,173.47426135533297 L533.2736049205117,68.76812126904572 " />
			<path d="M247.75136267015372,93.22289980647844 L386.0311929976814,145.75106372936506 " />
			<path d="M386.0311929976814,145.75106372936506 L386.0311929976814,217.8459687135269 " />
			<path d="M247.75136267015372,165.31780479064028 L386.0311929976814,217.84596871352687 " />
			<path d="M386.0311929976814,217.84596871352687 L533.2736049205117,137.30278403176743 " />
			<path d="M396.14610651238013,90.55271814039838 L260.4270137835104,164.79252315141144 " />
			<path d="M260.42701378351046,164.79252315141144 L384.87886107828535,212.06787068200939 " />
			<path d="M520.597953807155,137.8280656709963 L384.8788610782853,212.06787068200936 " />
			<path d="M396.1461065123802,90.55271814039835 L520.597953807155,137.8280656709963 " />
			<path d="M386.0311929976814,145.75106372936506 L533.2736049205117,65.2078790476056 " />
			<path d="M396.14610651238013,26.468358154476704 L396.14610651238013,90.55271814039834 " />
			<path d="M260.42701378351046,100.70816316548978 L396.14610651238024,26.468358154476718 " />
			<path d="M260.42701378351046,100.70816316548978 L260.42701378351046,164.79252315141142 " />
			<path d="M396.14610651238013,26.468358154476704 L520.597953807155,73.74370568507464 " />
			<path d="M520.597953807155,73.74370568507464 L520.597953807155,137.8280656709963 " />
			<path d="M384.87886107828535,147.9835106960877 L520.5979538071551,73.74370568507464 " />
			<path d="M384.87886107828535,147.9835106960877 L384.87886107828535,212.06787068200936 " />
			<path d="M260.42701378351046,100.70816316548978 L384.87886107828535,147.98351069608773 " />
			<path d="M247.75136267015372,165.31780479064028 L386.0311929976814,217.84596871352687 " />
			<path d="M386.0311929976814,217.84596871352687 L386.0311929976814,225.85651371176706 " />
			<path d="M247.75136267015372,173.32834978888047 L386.0311929976814,225.8565137117671 " />
			<path d="M386.0311929976814,217.84596871352687 L533.2736049205117,137.30278403176743 " />
			<path d="M386.0311929976814,225.8565137117671 L533.2736049205117,145.31332903000765 " />
			<path d="M247.75136267015372,173.32834978888047 L386.0311929976814,225.8565137117671 " />
			<path d="M386.0311929976814,225.8565137117671 L386.0311929976814,284.6005103655286 " />
			<path d="M247.75136267015372,232.072346442642 L386.0311929976814,284.6005103655286 " />
			<path d="M386.0311929976814,284.6005103655286 L533.2736049205117,204.05732568376914 " />
			<path d="M396.14610651238013,157.3072597924001 L260.4270137835104,231.54706480341315 " />
			<path d="M260.42701378351046,231.54706480341315 L384.87886107828535,278.8224123340111 " />
			<path d="M520.597953807155,204.582607322998 L384.8788610782853,278.82241233401106 " />
			<path d="M396.1461065123802,157.30725979240006 L520.597953807155,204.582607322998 " />
			<path d="M386.0311929976814,225.8565137117671 L533.2736049205117,145.31332903000765 " />
			<path d="M396.14610651238013,106.57380813687874 L396.14610651238013,157.30725979240003 " />
			<path d="M260.42701378351046,180.81361314789183 L396.14610651238024,106.57380813687877 " />
			<path d="M260.42701378351046,180.81361314789183 L260.42701378351046,231.54706480341312 " />
			<path d="M396.14610651238013,106.57380813687874 L520.597953807155,153.84915566747668 " />
			<path d="M520.597953807155,153.84915566747668 L520.597953807155,204.58260732299797 " />
			<path d="M384.87886107828535,228.08896067848974 L520.5979538071551,153.84915566747668 " />
			<path d="M384.87886107828535,228.08896067848974 L384.87886107828535,278.82241233401106 " />
			<path d="M260.42701378351046,180.81361314789183 L384.87886107828535,228.08896067848977 " />
			<path d="M247.75136267015372,232.072346442642 L386.0311929976814,284.6005103655286 " />
			<path d="M386.0311929976814,284.6005103655286 L386.0311929976814,292.6110553637688 " />
			<path d="M386.0311929976814,284.6005103655286 L533.2736049205117,204.05732568376914 " />
			<path d="M268.87744785908154,100.35797540600386 L268.87744785908154,124.38961040072448 " />
			<path d="M268.87744785908154,100.35797540600386 L304.9838480001582,114.07366265253536 " />
			<path d="M304.9838480001582,114.07366265253536 L304.9838480001582,138.10529764725598 " />
			<path d="M268.87744785908154,124.3896104007245 L304.9838480001582,138.105297647256 " />
			<path d="M368.10602980707597,46.078872685687685 L368.10602980707597,70.1105076804083 " />
			<path d="M368.10602980707597,46.078872685687685 L404.21242994815265,59.79455993221919 " />
			<path d="M404.2124299481526,59.7945599322192 L404.2124299481526,83.82619492693982 " />
			<path d="M368.10602980707597,70.11050768040832 L404.21242994815265,83.82619492693982 " />
			<path d="M268.87744785908154,100.35797540600386 L368.1060298070759,46.078872685687706 " />
			<path d="M268.87744785908154,124.3896104007245 L368.1060298070759,70.11050768040835 " />
			<path d="M304.9838480001582,114.07366265253536 L404.2124299481526,59.79455993221921 " />
			<path d="M304.9838480001582,138.105297647256 L404.2124299481526,83.82619492693985 " />
			<path d="M314.9707246349241,117.8673633802994 L314.9707246349241,141.00893781966 " />
			<path d="M314.9707246349241,117.8673633802994 L341.8584694208323,128.0811730319718 " />
			<path d="M341.85846942083225,128.0811730319718 L341.85846942083225,151.22274747133238 " />
			<path d="M314.9707246349241,141.00893781966 L341.8584694208323,151.22274747133238 " />
			<path d="M382.83027099935896,80.74746087479286 L382.83027099935896,103.88903531415346 " />
			<path d="M382.83027099935896,80.74746087479286 L409.7180157852671,90.96127052646526 " />
			<path d="M409.7180157852671,90.96127052646526 L409.7180157852671,114.10284496582585 " />
			<path d="M382.83027099935896,103.88903531415346 L409.7180157852671,114.10284496582585 " />
			<path d="M314.9707246349241,117.8673633802994 L382.830270999359,80.74746087479286 " />
			<path d="M314.9707246349241,141.00893781966 L382.830270999359,103.88903531415346 " />
			<path d="M341.85846942083225,128.0811730319718 L409.71801578526714,90.96127052646526 " />
			<path d="M341.85846942083225,151.22274747133238 L409.71801578526714,114.10284496582585 " />
			<path d="M426.3628101765437,88.97687322271176 L426.3628101765437,97.87747877631199 " />
			<path d="M426.3628101765437,88.97687322271176 L437.8861293705043,93.35422021628564 " />
			<path d="M437.88612937050425,93.35422021628564 L437.88612937050425,102.25482576988587 " />
			<path d="M426.3628101765437,97.87747877631199 L437.8861293705043,102.25482576988587 " />
			<path d="M464.7738741564124,67.96560765355713 L464.7738741564124,76.86621320715736 " />
			<path d="M464.7738741564124,67.96560765355713 L476.297193350373,72.34295464713101 " />
			<path d="M476.29719335037305,72.34295464713101 L476.29719335037305,81.24356020073124 " />
			<path d="M464.7738741564124,76.86621320715736 L476.297193350373,81.24356020073124 " />
			<path d="M426.3628101765437,88.97687322271176 L464.7738741564125,67.96560765355711 " />
			<path d="M426.3628101765437,97.87747877631199 L464.7738741564125,76.86621320715734 " />
			<path d="M437.88612937050425,93.35422021628564 L476.29719335037305,72.342954647131 " />
			<path d="M437.88612937050425,102.25482576988587 L476.29719335037305,81.24356020073122 " />
			<path d="M444.0318996072833,95.68880527952504 L444.0318996072833,104.58941083312527 " />
			<path d="M444.0318996072833,95.68880527952504 L455.55521880124394,100.06615227309892 " />
			<path d="M455.55521880124394,100.06615227309892 L455.55521880124394,108.96675782669915 " />
			<path d="M444.0318996072833,104.58941083312527 L455.55521880124394,108.96675782669915 " />
			<path d="M482.442963587152,74.67753971037041 L482.442963587152,83.57814526397064 " />
			<path d="M482.442963587152,74.67753971037041 L493.9662827811126,79.05488670394429 " />
			<path d="M493.9662827811127,79.05488670394429 L493.9662827811127,87.95549225754452 " />
			<path d="M482.442963587152,83.57814526397064 L493.9662827811126,87.95549225754452 " />
			<path d="M444.0318996072833,95.68880527952504 L482.4429635871521,74.6775397103704 " />
			<path d="M444.0318996072833,104.58941083312527 L482.4429635871521,83.57814526397063 " />
			<path d="M455.55521880124394,100.06615227309892 L493.96628278111274,79.05488670394428 " />
			<path d="M455.55521880124394,108.96675782669915 L493.96628278111274,87.9554922575445 " />
			<path d="M414.1993065829185,63.588260659983234 L414.1993065829185,81.3894717671837 " />
			<path d="M414.1993065829185,63.588260659983234 L431.1001747340608,70.0083695838916 " />
			<path d="M431.1001747340608,70.0083695838916 L431.1001747340608,87.80958069109205 " />
			<path d="M414.1993065829185,81.3894717671837 L431.1001747340608,87.80958069109205 " />
			<path d="M443.00760456782007,47.829811483117254 L443.00760456782007,65.63102259031771 " />
			<path d="M443.00760456782007,47.829811483117254 L459.90847271896234,54.24992040702562 " />
			<path d="M459.90847271896234,54.24992040702561 L459.90847271896234,72.05113151422607 " />
			<path d="M443.00760456782007,65.63102259031771 L459.90847271896234,72.05113151422607 " />
			<path d="M414.1993065829185,63.588260659983234 L443.00760456782007,47.829811483117254 " />
			<path d="M414.1993065829185,81.3894717671837 L443.00760456782007,65.63102259031771 " />
			<path d="M431.1001747340608,70.0083695838916 L459.90847271896234,54.24992040702561 " />
			<path d="M431.1001747340608,87.80958069109205 L459.90847271896234,72.05113151422607 " />
			<path d="M268.87744785908154,180.46342538840588 L268.87744785908154,195.59445482952626 " />
			<path d="M268.87744785908154,180.46342538840588 L311.8978395165346,196.8055208310817 " />
			<path d="M311.8978395165346,196.8055208310817 L311.8978395165346,211.93655027220208 " />
			<path d="M268.87744785908154,195.59445482952628 L311.8978395165346,211.9365502722021 " />
			<path d="M323.29312183056237,150.6974658321035 L323.29312183056237,165.82849527322387 " />
			<path d="M323.29312183056237,150.6974658321035 L366.3135134880154,167.03956127477932 " />
			<path d="M366.3135134880154,167.03956127477932 L366.3135134880154,182.1705907158997 " />
			<path d="M323.29312183056237,165.8284952732239 L366.3135134880154,182.17059071589972 " />
			<path d="M268.87744785908154,180.46342538840588 L323.2931218305623,150.6974658321035 " />
			<path d="M268.87744785908154,195.59445482952628 L323.2931218305623,165.8284952732239 " />
			<path d="M311.8978395165346,196.8055208310817 L366.31351348801536,167.03956127477932 " />
			<path d="M311.8978395165346,211.9365502722021 L366.31351348801536,182.17059071589972 " />
			<path d="M322.65293743089785,200.89104469175066 L322.65293743089785,212.46183191143095 " />
			<path d="M322.65293743089785,200.89104469175066 L344.1631332596244,209.06209241308858 " />
			<path d="M344.1631332596244,209.0620924130886 L344.1631332596244,220.6328796327689 " />
			<path d="M322.65293743089785,212.46183191143098 L344.1631332596244,220.6328796327689 " />
			<path d="M357.8630794124443,181.63071792002557 L357.8630794124443,193.20150513970586 " />
			<path d="M357.8630794124443,181.63071792002557 L379.3732752411708,189.8017656413635 " />
			<path d="M379.3732752411708,189.80176564136352 L379.3732752411708,201.3725528610438 " />
			<path d="M357.8630794124443,193.2015051397059 L379.3732752411708,201.3725528610438 " />
			<path d="M322.65293743089785,200.89104469175066 L357.8630794124442,181.63071792002557 " />
			<path d="M322.65293743089785,212.46183191143098 L357.8630794124442,193.2015051397059 " />
			<path d="M344.1631332596244,209.0620924130886 L379.37327524117075,189.80176564136352 " />
			<path d="M344.1631332596244,220.63287963276892 L379.37327524117075,201.37255286104383 " />
			<path d="M332.8958878255296,145.44464943981484 L332.8958878255296,161.46573943629525 " />
			<path d="M332.8958878255296,145.44464943981484 L350.56497725626923,152.15658149662812 " />
			<path d="M350.56497725626923,152.15658149662812 L350.56497725626923,168.17767149310853 " />
			<path d="M332.8958878255296,161.46573943629528 L350.56497725626923,168.17767149310856 " />
			<path d="M367.4658454074115,126.53451042757564 L367.4658454074115,142.55560042405605 " />
			<path d="M367.4658454074115,126.53451042757564 L385.13493483815114,133.24644248438892 " />
			<path d="M385.13493483815114,133.24644248438895 L385.13493483815114,149.26753248086936 " />
			<path d="M367.4658454074115,142.55560042405608 L385.13493483815114,149.26753248086936 " />
			<path d="M332.8958878255296,145.44464943981484 L367.4658454074115,126.53451042757567 " />
			<path d="M332.8958878255296,161.46573943629528 L367.4658454074115,142.5556004240561 " />
			<path d="M350.56497725626923,152.15658149662812 L385.13493483815114,133.24644248438895 " />
			<path d="M350.56497725626923,168.17767149310856 L385.13493483815114,149.2675324808694 " />
			<path d="M363.6247390094246,157.11757475601183 L363.6247390094246,160.67781697745193 " />
			<path d="M363.6247390094246,157.11757475601183 L378.9891646013721,162.95403741411036 " />
			<path d="M378.9891646013721,162.95403741411036 L378.9891646013721,166.51427963555045 " />
			<path d="M363.6247390094246,160.67781697745193 L378.9891646013721,166.51427963555045 " />
			<path d="M380.90971780036557,147.66250524989226 L380.90971780036557,151.22274747133235 " />
			<path d="M380.90971780036557,147.66250524989226 L396.2741433923131,153.4989679079908 " />
			<path d="M396.2741433923131,153.4989679079908 L396.2741433923131,157.05921012943088 " />
			<path d="M380.90971780036557,151.22274747133235 L396.2741433923131,157.05921012943088 " />
			<path d="M363.6247390094246,157.11757475601183 L380.90971780036557,147.66250524989223 " />
			<path d="M363.6247390094246,160.67781697745193 L380.90971780036557,151.22274747133233 " />
			<path d="M378.9891646013721,162.95403741411036 L396.2741433923131,153.49896790799076 " />
			<path d="M378.9891646013721,166.51427963555045 L396.2741433923131,157.05921012943085 " />
			<path d="M389.23211499600376,143.11006437657545 L389.23211499600376,145.7802460426555 " />
			<path d="M389.23211499600376,143.11006437657545 L402.29187674915914,148.0710576359592 " />
			<path d="M402.29187674915914,148.07105763595916 L402.29187674915914,150.74123930203922 " />
			<path d="M389.23211499600376,145.78024604265556 L402.29187674915914,150.7412393020393 " />
			<path d="M407.15727818660923,133.30480711096993 L407.15727818660923,135.97498877705 " />
			<path d="M407.15727818660923,133.30480711096993 L420.2170399397646,138.26580037035367 " />
			<path d="M420.2170399397646,138.26580037035365 L420.2170399397646,140.9359820364337 " />
			<path d="M407.15727818660923,135.97498877705004 L420.2170399397646,140.93598203643378 " />
			<path d="M389.23211499600376,143.11006437657545 L407.1572781866092,133.30480711096996 " />
			<path d="M389.23211499600376,145.78024604265556 L407.1572781866092,135.97498877705007 " />
			<path d="M402.29187674915914,148.07105763595916 L420.21703993976456,138.26580037035367 " />
			<path d="M402.29187674915914,150.74123930203928 L420.21703993976456,140.93598203643378 " />
			<path d="M448.1290797651359,153.61569716115275 L448.1290797651359,160.73618160403294 " />
			<path d="M448.1290797651359,153.61569716115275 L475.7850458306414,164.12132994573008 " />
			<path d="M475.7850458306415,164.12132994573005 L475.7850458306415,171.24181438861024 " />
			<path d="M448.1290797651359,160.73618160403294 L475.7850458306414,171.24181438861027 " />
			<path d="M471.17571815305723,141.00893781965996 L471.17571815305723,148.12942226254015 " />
			<path d="M471.17571815305723,141.00893781965996 L498.83168421856277,151.5145706042373 " />
			<path d="M498.8316842185627,151.5145706042373 L498.8316842185627,158.63505504711748 " />
			<path d="M471.17571815305723,148.12942226254015 L498.83168421856277,158.63505504711748 " />
			<path d="M448.1290797651359,153.61569716115275 L471.1757181530572,141.00893781965996 " />
			<path d="M448.1290797651359,160.73618160403294 L471.1757181530572,148.12942226254015 " />
			<path d="M475.7850458306415,164.12132994573005 L498.83168421856277,151.51457060423726 " />
			<path d="M475.7850458306415,171.24181438861024 L498.83168421856277,158.63505504711745 " />
			<path d="M462.21313655775447,211.77604754910442 L481.41866854768887,219.07162587172755 " />
			<path d="M481.41866854768887,219.07162587172758 L481.41866854768887,227.08217086996777 " />
			<path d="M481.41866854768887,219.07162587172758 L497.42327853930084,210.31693188457982 " />
			<path d="M435.96557617151086,-92.50793313086145 L435.96557617151086,-64.02599535934071 " />
			<path d="M435.96557617151086,-92.50793313086145 L474.37664015137966,-77.91677648561517 " />
			<path d="M474.37664015137966,-77.91677648561516 L474.37664015137966,-49.434838714094425 " />
			<path d="M435.96557617151086,-64.02599535934073 L474.37664015137966,-49.43483871409445 " />
			<path d="M435.96557617151086,-92.50793313086145 L461.57295215809006,-106.51544351029786 " />
			<path d="M435.96557617151086,-64.02599535934073 L453.8907393621163,-73.83125262494622 " />
			<path d="M474.37664015137966,-49.43483871409444 L492.3018033419851,-59.24009597969992 " />
			<path d="M474.37664015137966,-77.91677648561516 L535.1941581195052,-111.18461363677667 " />
			<path d="M497.1672047794351,-123.84973760485045 L440.1907932092964,-92.68302701060439 " />
			<path d="M440.19079320929643,-92.68302701060438 L473.9925295115809,-79.84280916278766 " />
			<path d="M530.9689410817197,-111.00951975703373 L473.9925295115809,-79.84280916278767 " />
			<path d="M497.1672047794351,-123.84973760485042 L530.9689410817197,-111.0095197570337 " />
			<path d="M497.1672047794351,-123.84973760485043 L497.1672047794351,-98.03798149940977 " />
			<path d="M440.19079320929643,-92.68302701060439 L440.19079320929643,-66.87127090516373 " />
			<path d="M440.19079320929643,-66.87127090516373 L497.16720477943517,-98.03798149940978 " />
			<path d="M530.9689410817197,-111.00951975703371 L530.9689410817197,-85.19776365159305 " />
			<path d="M497.1672047794351,-98.03798149940977 L530.9689410817197,-85.19776365159304 " />
			<path d="M473.992529511581,-79.84280916278767 L473.992529511581,-54.03105305734701 " />
			<path d="M473.992529511581,-54.03105305734701 L530.9689410817197,-85.19776365159306 " />
			<path d="M440.19079320929643,-66.87127090516373 L473.992529511581,-54.031053057347 " />
			<path d="M620.3386832748811,-22.470381233679305 L620.3386832748811,6.011556537841425 " />
			<path d="M620.3386832748811,-22.470381233679305 L658.7497472547499,-7.879224588433027 " />
			<path d="M658.7497472547499,-7.8792245884330185 L658.7497472547499,20.60271318308771 " />
			<path d="M620.3386832748811,6.011556537841415 L658.7497472547499,20.602713183087694 " />
			<path d="M620.3386832748811,-22.470381233679305 L645.9460592614603,-36.477891613115716 " />
			<path d="M620.3386832748811,6.011556537841415 L638.2638464654865,-3.793700727764067 " />
			<path d="M658.7497472547499,20.6027131830877 L676.6749104453553,10.79745591748222 " />
			<path d="M658.7497472547499,-7.8792245884330185 L719.5672652228754,-41.147061739594534 " />
			<path d="M681.5403118828053,-53.812185707668306 L624.5639003126666,-22.64547511342225 " />
			<path d="M624.5639003126665,-22.64547511342224 L658.3656366149511,-9.805257265605515 " />
			<path d="M715.3420481850899,-40.97196785985159 L658.3656366149512,-9.805257265605533 " />
			<path d="M681.5403118828052,-53.81218570766831 L715.3420481850898,-40.97196785985159 " />
			<path d="M681.5403118828053,-53.81218570766829 L681.5403118828053,-28.00042960222763 " />
			<path d="M624.5639003126666,-22.64547511342225 L624.5639003126666,3.166280992018411 " />
			<path d="M624.5639003126666,3.1662809920184145 L681.5403118828053,-28.000429602227637 " />
			<path d="M715.3420481850899,-40.971967859851574 L715.3420481850899,-15.160211754410913 " />
			<path d="M681.5403118828053,-28.000429602227626 L715.3420481850899,-15.1602117544109 " />
			<path d="M658.3656366149512,-9.805257265605533 L658.3656366149512,16.006498839835128 " />
			<path d="M658.3656366149512,16.00649883983513 L715.3420481850899,-15.16021175441092 " />
			<path d="M624.5639003126666,3.1662809920184145 L658.3656366149512,16.00649883983514 " />

       </g>

       <!-- solid lines -->
       <g  stroke="rgb(60,60,60)" fill="none">
			<path d="M115.23319193960639,-63.03379670746392 L42.252170377792595,33.851483416996004 " />
			<path d="M596.6518604872954,-248.04966296918676 L512.147519731584,-280.15020758872856 " />
			<path d="M115.23319193960639,-63.03379670746392 L512.1475197315839,-280.15020758872856 " />
			<path d="M115.23319193960639,-63.03379670746392 L115.23319193960639,61.574681042939275 " />
			<path d="M115.23319193960639,61.574681042939275 L42.25217037779983,113.95693339935994 " />
			<path d="M42.25217037785567,33.85148341697136 L42.25217037785567,113.95693339937341 " />
			<path d="M247.75136267015375,67.41114370103779 L302.1670366416346,37.64518414473537 " />
			<path d="M369.38639860640495,0.8754693987147419 L455.8112925611097,-46.399878131883185 " />
			<path d="M535.1941581195053,-89.82316030813615 L596.6518604872953,-123.44118521878352 " />
			<path d="M596.6518604872954,-123.44118521878356 L596.6518604872954,-248.04966296918676 " />
			<path d="M512.147519731584,-155.54172983832535 L596.6518604872954,-123.44118521878354 " />
			<path d="M512.147519731584,-280.15020758872856 L512.147519731584,-155.54172983832535 " />
			<path d="M565.9230093034002,-228.570468847783 L565.9230093034002,-192.96804663338207 " />
			<path d="M565.9230093034002,-228.570468847783 L542.876370915479,-237.32516283493075 " />
			<path d="M542.876370915479,-237.32516283493072 L542.876370915479,-201.7227406205298 " />
			<path d="M542.876370915479,-201.7227406205298 L565.9230093034002,-192.96804663338204 " />
			<path d="M512.147519731584,-155.54172983832535 L115.23319193960646,61.57468104293926 " />
			<path d="M115.23319193960639,61.574681042939275 L134.4387239295408,68.87025936556242 " />
			<path d="M164.74078551367043,98.18227182623906 L42.25217037788926,113.95693339939393 " />
			<path d="M258.55447441444926,61.501725259736325 L252.68992803897177,69.28714955541813 " />
			<path d="M781.0249675906655,-178.01211107200461 L696.5206268349541,-210.11265569154642 " />
			<path d="M596.6518604872954,-155.48336521174437 L696.5206268349541,-210.1126556915464 " />
			<path d="M299.6062990429766,39.04593518267902 L299.6062990429766,53.286904068439355 " />
			<path d="M247.75136267015372,168.831201719655 L226.62527748117006,183.9944852965421 " />
			<path d="M226.62527748122588,129.70079141959414 L226.62527748122588,183.99448529655555 " />
			<path d="M553.7595057097751,70.91302129589688 L640.18439966448,23.637673765298928 " />
			<path d="M719.5672652228754,-19.78560841095404 L781.0249675906655,-53.403633321601404 " />
			<path d="M781.0249675906655,-53.40363332160142 L781.0249675906655,-178.01211107200461 " />
			<path d="M696.5206268349542,-85.50417794114323 L781.0249675906656,-53.40363332160141 " />
			<path d="M696.5206268349542,-210.11265569154642 L696.5206268349542,-85.50417794114323 " />
			<path d="M750.2961164067706,-158.53291695060085 L750.2961164067706,-122.93049473619993 " />
			<path d="M750.2961164067706,-158.53291695060085 L727.2494780188493,-167.2876109377486 " />
			<path d="M727.2494780188492,-167.2876109377486 L727.2494780188492,-131.6851887233477 " />
			<path d="M727.2494780188492,-131.6851887233477 L750.2961164067705,-122.93049473619993 " />
			<path d="M696.5206268349542,-85.50417794114323 L622.8994208735389,-45.23258560026347 " />
			<path d="M555.6800589087686,-8.462870854242851 L478.857930949031,33.559660284066396 " />
			<path d="M247.75136267015372,181.2737684050427 L226.62527748125947,183.99448529657604 " />
			<path d="M263.1157882621012,73.24760635913628 L163.24702191444237,35.31059908149595 " />
			<path d="M163.24702191444237,35.310599081495965 L134.43872392954077,51.069048258361946 " />
			<path d="M163.24702191444237,35.310599081495965 L163.24702191444237,70.91302129589687 " />
			<path d="M134.4387239295408,86.67147047276285 L163.2470219144424,70.91302129589687 " />
			<path d="M134.4387239295408,86.67147047276285 L134.4387239295408,51.06904825836194 " />
			<path d="M163.24702191444237,70.91302129589687 L224.70472428223243,94.25887192829092 " />
			<path d="M195.89642629733083,110.01732110515688 L134.4387239295408,86.67147047276285 " />
			<path d="M553.7595057097751,70.91302129589688 L539.3553567173243,65.44133755392953 " />
			<path d="M384.75082419835246,6.711932056813268 L284.88205785069357,-31.225075220827065 " />
			<path d="M284.88205785069357,-31.225075220827065 L256.073759865792,-15.466626043961085 " />
			<path d="M284.88205785069357,-31.225075220827065 L284.88205785069357,4.377346993573845 " />
			<path d="M256.073759865792,20.135796170439818 L284.88205785069357,4.377346993573838 " />
			<path d="M256.073759865792,20.135796170439818 L256.073759865792,-15.466626043961092 " />
			<path d="M284.88205785069357,4.377346993573838 L346.33976021848366,27.723197625967885 " />
			<path d="M533.2736049205117,98.73349329949977 L553.7595057097751,106.51544351029779 " />
			<path d="M553.7595057097751,106.51544351029779 L533.2736049205117,117.72145181384694 " />
			<path d="M317.5314622335821,43.48164680283389 L256.07375986579194,20.135796170439818 " />
			<path d="M553.7595057097751,70.91302129589688 L553.7595057097751,106.51544351029779 " />
			<path d="M645.9460592614603,-36.477891613115716 L530.7128673218538,-80.25136154885456 " />
			<path d="M461.57295215809006,-106.51544351029786 L438.52631377016877,-115.27013749744562 " />
			<path d="M438.52631377016877,-115.27013749744562 L409.7180157852672,-99.51168832057964 " />
			<path d="M409.71801578526714,-63.909266106178734 L409.71801578526714,-99.51168832057965 " />
			<path d="M678.5954636443487,38.228830410545214 L409.71801578526714,-63.909266106178734 " />
			<path d="M707.4037616292503,22.470381233679234 L678.5954636443487,38.228830410545214 " />
			<path d="M707.4037616292503,-6.011556537841487 L707.4037616292503,22.47038123367924 " />
			<path d="M438.52631377016877,-79.66771528304471 L707.4037616292503,22.470381233679234 " />
			<path d="M438.52631377016877,-115.27013749744562 L438.52631377016877,-79.66771528304471 " />
			<path d="M409.71801578526714,-63.909266106178734 L438.5263137701687,-79.66771528304471 " />
			<path d="M565.9230093034002,-228.570468847783 L542.876370915479,-237.32516283493075 " />
			<path d="M542.876370915479,-237.32516283493072 L542.876370915479,-201.7227406205298 " />
			<path d="M542.876370915479,-201.7227406205298 L565.9230093034002,-192.96804663338204 " />
			<path d="M565.9230093034002,-228.570468847783 L565.9230093034002,-192.96804663338207 " />
			<path d="M750.2961164067706,-158.53291695060085 L727.2494780188493,-167.2876109377486 " />
			<path d="M727.2494780188492,-167.2876109377486 L727.2494780188492,-131.6851887233477 " />
			<path d="M727.2494780188492,-131.6851887233477 L750.2961164067705,-122.93049473619993 " />
			<path d="M750.2961164067706,-158.53291695060085 L750.2961164067706,-122.93049473619993 " />
			<path d="M596.6518604872954,-248.04966296918676 L512.147519731584,-280.15020758872856 " />
			<path d="M512.147519731584,-280.15020758872856 L505.7456757349392,-276.6483299938695 " />
			<path d="M505.74567573493914,-152.0398522434662 L505.74567573493914,-276.6483299938694 " />
			<path d="M590.2500164906505,-119.93930762392442 L505.74567573493914,-152.03985224346624 " />
			<path d="M596.6518604872954,-123.44118521878356 L590.2500164906506,-119.93930762392445 " />
			<path d="M596.6518604872954,-248.04966296918676 L596.6518604872954,-123.44118521878356 " />
			<path d="M512.147519731584,-155.54172983832535 L596.6518604872954,-123.44118521878354 " />
			<path d="M512.147519731584,-280.15020758872856 L512.147519731584,-155.54172983832535 " />
			<path d="M565.9230093034002,-228.570468847783 L565.9230093034002,-192.96804663338207 " />
			<path d="M565.9230093034002,-228.570468847783 L542.876370915479,-237.32516283493075 " />
			<path d="M542.876370915479,-237.32516283493072 L542.876370915479,-201.7227406205298 " />
			<path d="M542.876370915479,-201.7227406205298 L565.9230093034002,-192.96804663338204 " />
			<path d="M505.74567573493914,-152.0398522434662 L512.1475197315839,-155.54172983832532 " />
			<path d="M781.0249675906655,-178.01211107200461 L696.5206268349541,-210.11265569154642 " />
			<path d="M696.5206268349542,-210.11265569154642 L690.1187828383095,-206.6107780966873 " />
			<path d="M690.1187828383094,-82.00230034628409 L690.1187828383094,-206.61077809668728 " />
			<path d="M774.6231235940206,-49.90175572674228 L690.1187828383092,-82.0023003462841 " />
			<path d="M781.0249675906655,-53.40363332160142 L774.6231235940207,-49.90175572674231 " />
			<path d="M781.0249675906655,-178.01211107200461 L781.0249675906655,-53.40363332160142 " />
			<path d="M696.5206268349542,-85.50417794114323 L781.0249675906656,-53.40363332160141 " />
			<path d="M696.5206268349542,-210.11265569154642 L696.5206268349542,-85.50417794114323 " />
			<path d="M750.2961164067706,-158.53291695060085 L750.2961164067706,-122.93049473619993 " />
			<path d="M750.2961164067706,-158.53291695060085 L727.2494780188493,-167.2876109377486 " />
			<path d="M727.2494780188492,-167.2876109377486 L727.2494780188492,-131.6851887233477 " />
			<path d="M727.2494780188492,-131.6851887233477 L750.2961164067705,-122.93049473619993 " />
			<path d="M690.1187828383094,-82.00230034628409 L696.5206268349541,-85.5041779411432 " />
			<path d="M195.89642629733086,110.0173211051569 L195.89642629733086,118.0278661033971 " />
			<path d="M195.89642629733086,118.02786610339712 L247.75136267015372,137.72592757447958 " />
			<path d="M394.35359019331963,1.4591156645245746 L394.35359019331963,9.46966066276478 " />
			<path d="M394.35359019331963,1.4591156645245746 L540.315633316821,56.905510916460436 " />
			<path d="M540.315633316821,56.90551091646043 L540.315633316821,64.91605591470064 " />
			<path d="M394.35359019331963,9.469660662764795 L540.315633316821,64.91605591470065 " />
			<path d="M195.89642629733086,110.0173211051569 L394.35359019331963,1.4591156645245889 " />
			<path d="M195.89642629733086,118.02786610339712 L394.35359019331963,9.46966066276481 " />
			<path d="M533.2736049205117,68.76812126904572 L540.315633316821,64.91605591470066 " />
			<path d="M247.75136267015372,93.22289980647844 L247.75136267015372,165.31780479064028 " />
			<path d="M247.75136267015372,93.22289980647844 L394.9937745929841,12.679715124718982 " />
			<path d="M247.75136267015372,165.31780479064028 L394.9937745929841,84.77462010888082 " />
			<path d="M394.9937745929841,12.679715124718996 L394.9937745929841,84.77462010888084 " />
			<path d="M394.9937745929841,84.77462010888084 L533.2736049205117,137.30278403176743 " />
			<path d="M533.2736049205117,65.20787904760559 L533.2736049205117,137.30278403176743 " />
			<path d="M394.9937745929841,12.679715124718996 L533.2736049205117,65.2078790476056 " />
			<path d="M247.75136267015372,165.31780479064028 L247.75136267015372,173.32834978888047 " />
			<path d="M394.9937745929841,84.77462010888084 L394.9937745929841,92.78516510712105 " />
			<path d="M394.9937745929841,84.77462010888084 L533.2736049205117,137.30278403176743 " />
			<path d="M533.2736049205117,137.30278403176743 L533.2736049205117,145.31332903000762 " />
			<path d="M394.9937745929841,92.78516510712103 L533.2736049205117,145.31332903000765 " />
			<path d="M247.75136267015372,165.31780479064028 L394.9937745929841,84.77462010888082 " />
			<path d="M247.75136267015372,173.32834978888047 L394.9937745929841,92.78516510712102 " />
			<path d="M247.75136267015372,173.32834978888047 L247.75136267015372,232.072346442642 " />
			<path d="M247.75136267015372,173.32834978888047 L394.9937745929841,92.78516510712102 " />
			<path d="M247.75136267015372,232.072346442642 L394.9937745929841,151.52916176088252 " />
			<path d="M394.9937745929841,92.78516510712103 L394.9937745929841,151.52916176088254 " />
			<path d="M394.9937745929841,151.52916176088254 L533.2736049205117,204.05732568376914 " />
			<path d="M533.2736049205117,145.31332903000762 L533.2736049205117,204.05732568376914 " />
			<path d="M394.9937745929841,92.78516510712103 L533.2736049205117,145.31332903000765 " />
			<path d="M247.75136267015372,232.072346442642 L247.75136267015372,240.08289144088218 " />
			<path d="M247.75136267015372,240.0828914408822 L386.0311929976814,292.6110553637688 " />
			<path d="M394.9937745929841,151.52916176088254 L394.9937745929841,159.53970675912274 " />
			<path d="M394.9937745929841,151.52916176088254 L533.2736049205117,204.05732568376914 " />
			<path d="M533.2736049205117,204.05732568376914 L533.2736049205117,212.06787068200933 " />
			<path d="M394.9937745929841,159.53970675912277 L533.2736049205117,212.06787068200936 " />
			<path d="M247.75136267015372,232.072346442642 L394.9937745929841,151.52916176088252 " />
			<path d="M247.75136267015372,240.0828914408822 L394.9937745929841,159.53970675912274 " />
			<path d="M386.0311929976814,292.6110553637688 L533.2736049205117,212.06787068200936 " />
			<path d="M462.21313655775447,211.77604754910442 L462.21313655775447,219.7865925473446 " />
			<path d="M462.21313655775447,219.78659254734464 L481.41866854768887,227.08217086996777 " />
			<path d="M478.2177465493665,203.0213535619567 L478.2177465493665,211.03189856019688 " />
			<path d="M478.2177465493665,203.0213535619567 L497.4232785393009,210.31693188457982 " />
			<path d="M497.4232785393009,210.31693188457982 L497.4232785393009,218.32747688282 " />
			<path d="M478.2177465493665,211.0318985601969 L497.4232785393009,218.32747688282004 " />
			<path d="M462.21313655775447,211.77604754910442 L478.21774654936644,203.02135356195666 " />
			<path d="M462.21313655775447,219.78659254734464 L478.21774654936644,211.03189856019688 " />
			<path d="M481.41866854768887,227.0821708699678 L497.42327853930084,218.32747688282004 " />
			<path d="M461.57295215809006,-106.51544351029786 L496.78309413963643,-125.77577028202296 " />
			<path d="M453.8907393621163,-73.83125262494622 L496.78309413963643,-97.29383251050224 " />
			<path d="M496.78309413963643,-125.77577028202295 L496.78309413963643,-97.29383251050221 " />
			<path d="M496.78309413963643,-97.29383251050223 L535.1941581195052,-82.70267586525596 " />
			<path d="M492.3018033419851,-59.24009597969992 L535.1941581195052,-82.70267586525596 " />
			<path d="M535.1941581195052,-111.18461363677666 L535.1941581195052,-82.70267586525593 " />
			<path d="M496.78309413963643,-125.77577028202295 L535.1941581195052,-111.18461363677667 " />
			<path d="M645.9460592614603,-36.477891613115716 L681.1562012430066,-55.73821838484082 " />
			<path d="M638.2638464654865,-3.793700727764067 L681.1562012430066,-27.2562806133201 " />
			<path d="M681.1562012430066,-55.738218384840806 L681.1562012430066,-27.256280613320076 " />
			<path d="M681.1562012430066,-27.256280613320087 L719.5672652228754,-12.665123968073809 " />
			<path d="M676.6749104453553,10.79745591748222 L719.5672652228754,-12.665123968073814 " />
			<path d="M719.5672652228754,-41.14706173959452 L719.5672652228754,-12.66512396807379 " />
			<path d="M681.1562012430066,-55.738218384840806 L719.5672652228754,-41.14706173959453 " />

       </g>
    </g>
    
</svg>
